<svg width="25" height="25" viewBox="0 0 25 25" fill="none" xmlns="http://www.w3.org/2000/svg">
<path d="M9.42858 3.6499C9.11492 3.2026 8.46694 3.68786 8.75995 4.15006C8.83611 4.27205 8.92001 4.38862 9.00003 4.50113C9.96425 5.86878 10.4638 7.5292 10.8936 9.1693C10.9995 9.57594 11.1014 10.0029 10.9814 10.4C11.1544 9.33466 11.0421 8.23133 10.7813 7.18627C10.5206 6.14122 10.123 5.1409 9.69835 4.14735C9.62518 3.97212 9.53476 3.8054 9.42858 3.6499Z" fill="black"/>
<path d="M3.17087 6.5221C2.52548 6.50042 2.4377 7.53734 3.08567 7.59156C3.25605 7.60511 3.42644 7.60918 3.59037 7.6146C5.58205 7.67153 7.46272 8.42787 9.27627 9.24114C9.7203 9.44175 10.1798 9.66675 10.447 10.0951C9.63124 9.10153 8.55601 8.37365 7.41367 7.83825C6.27133 7.30284 5.05282 6.95178 3.83562 6.61834C3.61809 6.5606 3.39515 6.52832 3.17087 6.5221Z" fill="black"/>
<path d="M3.35028 9.07171C2.93981 9.08662 3.03275 9.70064 3.4458 9.70335C3.55422 9.70335 3.66265 9.70335 3.76591 9.69521C5.02184 9.641 6.30875 10.0056 7.55694 10.4055C7.86415 10.5044 8.18684 10.6156 8.41015 10.8568C7.74735 10.3195 6.9961 9.9147 6.19387 9.66268C5.40405 9.41591 4.59821 9.22972 3.78269 9.10559C3.64005 9.07873 3.49515 9.06737 3.35028 9.07171Z" fill="black"/>
<path d="M11.7584 20.4656C11.8746 20.8804 12.4167 20.6337 12.3174 20.2122C12.2915 20.1024 12.2606 19.9939 12.2309 19.8896C11.8695 18.6249 11.8862 17.2247 11.9456 15.8557C11.9611 15.5196 11.983 15.1631 12.1496 14.8771C11.8187 15.6844 11.6319 16.5486 11.5984 17.4267C11.5661 18.292 11.5942 19.1587 11.6823 20.0197C11.6935 20.1706 11.719 20.32 11.7584 20.4656Z" fill="black"/>
<path d="M4.09894 3.07112C3.8524 3.0264 3.83304 3.40457 4.07957 3.46149C4.14411 3.4764 4.20865 3.4886 4.2719 3.49945C5.0283 3.63499 5.75243 4.02401 6.44945 4.42929C6.62914 4.51572 6.78568 4.6475 6.9051 4.81288C6.57393 4.40337 6.17406 4.06111 5.72532 3.80307C5.28339 3.5508 4.82485 3.33202 4.35322 3.14839C4.27091 3.11446 4.18579 3.0886 4.09894 3.07112Z" fill="black"/>
<path d="M0.280801 13.0974C-0.346519 13.4363 0.183991 14.3675 0.828092 14.0584C0.997185 13.9771 1.16111 13.8863 1.31859 13.8009C3.23669 12.7558 5.4633 12.3722 7.65505 12.0754C8.19201 12.0035 8.76512 11.9398 9.26336 12.1635C7.90675 11.7569 6.46366 11.7284 5.06832 11.8924C3.67298 12.0564 2.31636 12.4346 0.972659 12.8182C0.733598 12.8863 0.50178 12.9799 0.280801 13.0974Z" fill="black"/>
<path d="M2.0737 16.7205C1.62192 17.1624 2.33185 17.6842 2.79912 17.2627C2.92819 17.1516 3.04049 17.0336 3.15408 16.9225C4.52747 15.567 6.3436 14.6047 8.15199 13.7155C8.59602 13.4973 10.4225 13.275 10.9104 13.2872C9.63639 13.4064 7.03804 13.8293 5.87634 14.3715C4.74218 14.9375 3.64594 15.5838 2.59517 16.3057C2.40932 16.4265 2.23472 16.5654 2.0737 16.7205Z" fill="black"/>
<path d="M5.29033 22.5056C5.16125 23.1372 6.01962 23.1467 6.17968 22.5151C6.22098 22.3497 6.25454 22.183 6.28681 22.0244C6.68437 20.0902 7.65633 18.2115 8.66314 16.402C8.91097 15.9574 10.2934 14.6833 10.7013 14.4027C9.71771 15.2621 7.80348 17.1583 7.15034 18.3037C6.52375 19.4466 5.97133 20.6326 5.49685 21.8536C5.40841 22.0635 5.33925 22.2819 5.29033 22.5056Z" fill="black"/>
<path d="M11.7649 0.297872C11.4577 -0.359522 10.58 0.181303 10.8613 0.856317C10.9349 1.03253 11.0162 1.20467 11.095 1.37003C12.0398 3.37881 12.3651 5.70748 12.6091 7.98599C12.6684 8.54715 12.7188 9.14355 12.5019 9.65862C12.8982 8.25302 12.9511 6.75118 12.8143 5.29678C12.6775 3.84238 12.3509 2.43 12.0101 1.02168C11.9521 0.772282 11.8699 0.529756 11.7649 0.297872Z" fill="black"/>
<path d="M6.87283 1.41747C6.88893 1.42738 6.9071 1.43296 6.92575 1.43374C6.95931 1.43374 6.98383 1.39714 6.99803 1.36461C7.07419 1.18976 7.03031 0.957976 7.14906 0.822431C7.26909 0.973748 7.36577 1.14389 7.43561 1.32666L7.88609 1.18027C7.90712 1.27204 7.91041 1.3673 7.89577 1.46042C7.88114 1.55354 7.84889 1.64264 7.8009 1.72245C7.87967 1.75912 7.95141 1.81057 8.01259 1.87426C8.04306 1.90656 8.06438 1.9471 8.07418 1.99138C8.08398 2.03566 8.08188 2.08193 8.0681 2.12502C7.96422 2.15139 7.85733 2.16234 7.75056 2.15755C7.76739 2.36562 7.75565 2.57514 7.71571 2.7797C7.71465 2.79488 7.71068 2.80967 7.70402 2.82318C7.69737 2.83669 7.68817 2.84865 7.67699 2.85832C7.64472 2.88136 7.60083 2.85832 7.56727 2.83934C7.41236 2.73975 7.28471 2.59964 7.19682 2.43271L7.02514 2.83663C7.01295 2.87974 6.98637 2.91679 6.95027 2.941C6.92487 2.95044 6.89717 2.95063 6.87165 2.94153C6.84613 2.93243 6.82427 2.91458 6.80958 2.89085C6.78218 2.842 6.76543 2.78737 6.76053 2.73091L6.69729 2.32427C6.69655 2.30343 6.68929 2.28342 6.67663 2.26734C6.65779 2.25235 6.63437 2.24512 6.6108 2.24701C6.45074 2.24701 6.29198 2.24701 6.13321 2.24701C6.10611 2.15755 6.19 2.07487 6.27132 2.03827C6.35264 2.00167 6.44945 1.97185 6.49076 1.88917C6.57337 1.71974 6.36168 1.48254 6.44945 1.33886C6.56046 1.1762 6.73343 1.34564 6.87283 1.41747Z" fill="black"/>
<path d="M15.5714 3.6499C15.8851 3.2026 16.5318 3.68786 16.24 4.15006C16.1626 4.27205 16.08 4.38862 16 4.50113C15.0357 5.86878 14.5362 7.5292 14.1051 9.1693C13.9992 9.57594 13.8973 10.0029 14.0186 10.4C13.8456 9.33466 13.9579 8.23133 14.2187 7.18627C14.4794 6.14122 14.8821 5.1409 15.3003 4.15142C15.3742 3.97501 15.4651 3.80697 15.5714 3.6499Z" fill="black"/>
<path d="M21.8278 6.5221C22.4732 6.50042 22.561 7.53734 21.913 7.59156C21.7439 7.60511 21.5723 7.60918 21.4096 7.6146C19.4167 7.67153 17.5373 8.42787 15.7237 9.24114C15.2797 9.44175 14.8124 9.66675 14.553 10.0951C15.3688 9.10153 16.4427 8.37365 17.5863 7.83825C18.73 7.30284 19.9459 6.95178 21.1644 6.61834C21.3815 6.5607 21.604 6.52842 21.8278 6.5221Z" fill="black"/>
<path d="M21.6484 9.07171C22.0602 9.08662 21.9672 9.70064 21.5542 9.70335C21.4458 9.70335 21.3373 9.70335 21.2341 9.69521C19.9769 9.641 18.6912 10.0056 17.4431 10.4055C17.1358 10.5044 16.8119 10.6156 16.5898 10.8568C17.2526 10.3195 18.0039 9.9147 18.8061 9.66268C19.598 9.41467 20.406 9.22758 21.2238 9.10288C21.3639 9.07743 21.5062 9.06699 21.6484 9.07171Z" fill="black"/>
<path d="M20.9011 3.07112C21.1476 3.0264 21.167 3.40457 20.9204 3.46149C20.8559 3.4764 20.7913 3.4886 20.7281 3.49945C19.9717 3.63499 19.2463 4.02401 18.5493 4.42929C18.3699 4.51576 18.2138 4.64756 18.0949 4.81288C18.4256 4.40342 18.825 4.06115 19.2734 3.80307C19.7159 3.55105 20.1748 3.33227 20.6468 3.14839C20.7291 3.11446 20.8142 3.0886 20.9011 3.07112Z" fill="black"/>
<path d="M14.4613 21.2504C14.4058 21.508 14.0664 21.386 14.1115 21.1149C14.1232 21.0471 14.1386 20.9793 14.1528 20.9143C14.3245 20.1295 14.2626 19.2769 14.1748 18.446C14.1684 18.2389 14.1129 18.0367 14.0134 17.8577C14.2456 18.3357 14.3922 18.8544 14.4459 19.388C14.4976 19.9139 14.5127 20.443 14.491 20.9712C14.4904 21.0651 14.4804 21.1587 14.4613 21.2504Z" fill="black"/>
<path d="M20.7423 19.5412C20.9359 19.8855 20.4609 19.8625 20.2518 19.5182C20.1976 19.4287 20.1472 19.3379 20.0995 19.2471C19.5109 18.1966 18.6164 17.157 17.7141 16.1526C17.5005 15.8922 17.2512 15.6666 16.9745 15.483C17.678 15.9872 18.3272 16.5704 18.9107 17.222C19.4889 17.8577 20.0001 18.5206 20.5009 19.182C20.5891 19.2958 20.6698 19.4158 20.7423 19.5412Z" fill="black"/>
<path d="M3.5581 19.5412C3.36449 19.8855 3.83949 19.8625 4.04731 19.5182C4.10281 19.4287 4.15315 19.3379 4.20091 19.2471C4.78951 18.1966 5.68402 17.157 6.58628 16.1526C6.79963 15.8919 7.04893 15.6662 7.3259 15.483C6.62211 15.9869 5.97286 16.57 5.38972 17.222C4.81145 17.8577 4.29901 18.5206 3.79948 19.182C3.71126 19.2958 3.63061 19.4158 3.5581 19.5412Z" fill="black"/>
<path d="M9.84292 21.2504C9.89842 21.508 10.2379 21.386 10.1927 21.1149C10.1811 21.0471 10.1656 20.9793 10.1514 20.9143C9.97974 20.1295 10.0417 19.2769 10.1295 18.446C10.1359 18.2389 10.1913 18.0367 10.2908 17.8577C10.0604 18.3374 9.91605 18.8576 9.86486 19.3921C9.81311 19.918 9.79801 20.4471 9.81969 20.9753C9.81849 21.0676 9.82627 21.1598 9.84292 21.2504Z" fill="black"/>
<path d="M18.921 5.65326C19.1675 5.60717 19.1869 5.98535 18.9404 6.04363C18.8758 6.05854 18.8113 6.06938 18.748 6.08023C17.9916 6.21577 17.2675 6.60614 16.5692 7.01142C16.3899 7.09727 16.2337 7.22863 16.1148 7.39366C16.4457 6.98418 16.8456 6.6423 17.2946 6.3852C17.736 6.13183 18.1946 5.91301 18.6667 5.73052C18.7486 5.69536 18.8339 5.66946 18.921 5.65326Z" fill="black"/>
<path d="M16.6118 0.583872C16.8248 0.448327 16.9771 0.788545 16.768 0.939C16.7138 0.978308 16.657 1.01355 16.604 1.04879C15.9496 1.47169 15.4165 2.11689 14.9144 2.7675C14.7778 2.91677 14.6796 3.10009 14.6291 3.3002C14.7902 2.79057 15.0392 2.3164 15.3636 1.90137C15.6835 1.49365 16.0312 1.11086 16.404 0.756014C16.4677 0.691631 16.5373 0.633974 16.6118 0.583872Z" fill="black"/>
<path d="M24.7192 13.0974C25.3465 13.4363 24.816 14.3675 24.1719 14.0584C24.0028 13.9771 23.8376 13.8863 23.6814 13.8009C21.7633 12.7558 19.5354 12.3722 17.345 12.0754C16.808 12.0035 16.2349 11.9398 15.7366 12.1635C17.092 11.7569 18.5363 11.7284 19.9317 11.8924C21.327 12.0564 22.6836 12.4346 24.0273 12.8182C24.2663 12.8865 24.4981 12.9801 24.7192 13.0974Z" fill="black"/>
<path d="M22.9263 16.7205C23.3768 17.1624 22.6681 17.6842 22.1996 17.2627C22.077 17.1516 21.9582 17.0336 21.8459 16.9225C20.4712 15.567 18.6551 14.6047 16.848 13.7155C16.404 13.4973 14.5762 13.275 14.0896 13.2872C15.3636 13.4064 17.9619 13.8293 19.1236 14.3715C20.2582 14.9375 21.3549 15.5837 22.4061 16.3057C22.5915 16.4266 22.7657 16.5654 22.9263 16.7205Z" fill="black"/>
<path d="M17.6096 23.2267C17.6651 23.8705 16.808 23.7689 16.7254 23.1196C16.7034 22.9502 16.6905 22.7807 16.6776 22.6181C16.5137 20.6473 15.7741 18.6561 14.9906 16.7273C14.7982 16.2542 13.5784 14.8093 13.2067 14.4772C14.0806 15.4586 15.7534 17.5948 16.2646 18.8147C16.7498 20.0305 17.156 21.2795 17.4805 22.553C17.5432 22.7729 17.5864 22.9984 17.6096 23.2267Z" fill="black"/>
<path d="M18.1259 1.41747C18.1098 1.42738 18.0916 1.43296 18.073 1.43374C18.0381 1.43374 18.0149 1.39714 18.0007 1.36461C17.9232 1.18976 17.9684 0.957976 17.8496 0.822431C17.7296 0.973748 17.6329 1.14389 17.5631 1.32666L17.1126 1.18027C17.0913 1.27201 17.0879 1.36732 17.1025 1.46049C17.1171 1.55367 17.1495 1.64277 17.1978 1.72245C17.1186 1.75911 17.0465 1.81055 16.9848 1.87426C16.9547 1.90678 16.9337 1.9474 16.9241 1.99164C16.9146 2.03588 16.9168 2.08203 16.9306 2.12502C17.0345 2.15144 17.1414 2.16239 17.2481 2.15755C17.2315 2.36556 17.2428 2.57499 17.2817 2.7797C17.2844 2.81019 17.2983 2.83839 17.3204 2.85832C17.354 2.88136 17.3979 2.85832 17.4314 2.83934C17.5864 2.73975 17.714 2.59964 17.8019 2.43271L17.9697 2.8529C17.9814 2.89624 18.0081 2.93343 18.0446 2.95727C18.0698 2.96686 18.0973 2.96712 18.1227 2.958C18.148 2.94888 18.1697 2.93092 18.184 2.90711C18.2123 2.85861 18.2295 2.80386 18.2343 2.74717L18.2963 2.34054C18.298 2.3197 18.3057 2.29989 18.3182 2.28361C18.337 2.26862 18.3605 2.26138 18.384 2.26328C18.5428 2.26328 18.7029 2.26328 18.8616 2.26328C18.8887 2.17382 18.8035 2.09113 18.7222 2.05454C18.6409 2.01794 18.5454 1.98812 18.5041 1.90544C18.4215 1.736 18.6332 1.4988 18.5441 1.35512C18.4395 1.1762 18.2666 1.34564 18.1259 1.41747Z" fill="black"/>
<path d="M19.4864 20.9062C19.4703 20.9161 19.4521 20.9216 19.4334 20.9224C19.3986 20.9224 19.3754 20.8872 19.3612 20.8546C19.285 20.6784 19.3289 20.448 19.2101 20.3043C19.0904 20.4559 18.9937 20.6259 18.9236 20.8086L18.4731 20.6622C18.4521 20.7539 18.4488 20.8492 18.4634 20.9423C18.478 21.0354 18.5103 21.1245 18.5583 21.2044C18.4795 21.241 18.4078 21.2925 18.3466 21.3562C18.3161 21.3885 18.2948 21.429 18.285 21.4733C18.2752 21.5176 18.2773 21.5638 18.2911 21.6069C18.3949 21.6337 18.5018 21.6451 18.6086 21.6408C18.5918 21.8484 18.6035 22.0575 18.6435 22.2616C18.6445 22.277 18.6485 22.292 18.6551 22.3057C18.6618 22.3194 18.671 22.3316 18.6822 22.3416C18.7145 22.3633 18.7584 22.3416 18.7919 22.3212C18.9468 22.2216 19.0745 22.0815 19.1624 21.9146L19.3302 22.3348C19.3427 22.3781 19.3692 22.4155 19.405 22.4405C19.4307 22.4483 19.458 22.4475 19.4832 22.4382C19.5084 22.429 19.5302 22.4118 19.5457 22.389C19.5731 22.3402 19.5899 22.2855 19.5948 22.2291L19.658 21.8292C19.6573 21.8177 19.6592 21.8062 19.6635 21.7956C19.6678 21.7849 19.6744 21.7755 19.6829 21.7681C19.6913 21.7607 19.7013 21.7555 19.712 21.753C19.7227 21.7504 19.7339 21.7505 19.7445 21.7533C19.9033 21.7533 20.0633 21.7465 20.2221 21.7533C20.2492 21.6638 20.1653 21.5825 20.084 21.5446C20.0027 21.5066 19.9059 21.4795 19.8646 21.3955C19.7819 21.2274 19.9936 20.9888 19.9059 20.8465C19.8039 20.6649 19.6258 20.8343 19.4864 20.9062Z" fill="black"/>
<path d="M23.3058 7.84231C23.2895 7.85298 23.2707 7.85862 23.2516 7.85858C23.218 7.85858 23.1948 7.82334 23.1806 7.79081C23.1031 7.61595 23.147 7.38417 23.0296 7.24049C22.9096 7.39235 22.8129 7.56293 22.743 7.74608L22.2925 7.59833C22.2711 7.69006 22.2676 7.78539 22.2823 7.87858C22.2969 7.97176 22.3294 8.06086 22.3777 8.14051C22.2984 8.17682 22.2262 8.2283 22.1647 8.29232C22.1349 8.32503 22.114 8.36557 22.1042 8.4097C22.0944 8.45383 22.0962 8.4999 22.1092 8.54308C22.2135 8.56989 22.3208 8.5813 22.4281 8.57697C22.4114 8.78453 22.4227 8.99351 22.4616 9.19776C22.4643 9.22866 22.4781 9.2573 22.5003 9.27773C22.5339 9.29942 22.5765 9.27774 22.6101 9.25876C22.7653 9.15911 22.8933 9.01903 22.9818 8.85212L23.1483 9.27231C23.1604 9.31581 23.187 9.35332 23.2232 9.37804C23.2487 9.38711 23.2765 9.38696 23.3019 9.37764C23.3274 9.36831 23.3492 9.35032 23.3639 9.32653C23.3924 9.27814 23.4097 9.22333 23.4142 9.16659L23.4762 8.75995C23.4779 8.73975 23.4851 8.72048 23.4968 8.70438C23.5159 8.68882 23.5399 8.68154 23.5639 8.68405C23.7227 8.68405 23.8815 8.68405 24.0402 8.68405C24.0686 8.59594 23.9835 8.51326 23.9021 8.47531C23.8208 8.43736 23.724 8.41025 23.684 8.32756C23.6014 8.15813 23.8131 7.92093 23.724 7.77725C23.6182 7.60104 23.4439 7.77047 23.3058 7.84231Z" fill="black"/>
<path d="M8.03712 22.8607C8.01487 22.8749 7.98954 22.8828 7.96354 22.8838C7.91578 22.8838 7.88222 22.8336 7.86286 22.7875C7.75572 22.5449 7.81768 22.2277 7.65246 22.023C7.48553 22.2339 7.35097 22.4708 7.25361 22.7252L6.625 22.5218C6.59585 22.6496 6.59134 22.7823 6.61173 22.9119C6.63213 23.0416 6.67702 23.1657 6.74375 23.2768C6.63341 23.3271 6.53312 23.3989 6.44816 23.4883C6.40622 23.5334 6.37683 23.5897 6.36318 23.6511C6.34953 23.7125 6.35214 23.7767 6.37071 23.8366C6.51591 23.874 6.66535 23.8899 6.81474 23.8841C6.79124 24.1737 6.80732 24.4654 6.8625 24.7502C6.86577 24.7927 6.88477 24.8321 6.91543 24.86C6.94091 24.8709 6.96876 24.8741 6.99588 24.8693C7.023 24.8645 7.04833 24.8519 7.06903 24.8329C7.28631 24.6924 7.46441 24.4941 7.58534 24.2582L7.81897 24.8437C7.83559 24.9043 7.87279 24.9564 7.92353 24.9901C7.95902 25.0032 7.99766 25.0033 8.03323 24.9905C8.06881 24.9777 8.09927 24.9528 8.11972 24.9196C8.15815 24.8519 8.18154 24.7759 8.18814 24.6973L8.27591 24.1403C8.27693 24.1111 8.28688 24.083 8.3043 24.0603C8.33107 24.0396 8.36415 24.0299 8.39724 24.0332C8.61926 24.0332 8.84128 24.0237 9.062 24.0332C9.10072 23.9085 8.98196 23.7946 8.86967 23.7418C8.75737 23.6889 8.62184 23.6509 8.56504 23.5357C8.44887 23.2999 8.74833 22.9719 8.62055 22.7685C8.47211 22.5246 8.23074 22.7618 8.03712 22.8607Z" fill="black"/>
<path d="M1.68517 8.23268C1.66246 8.24684 1.63671 8.25476 1.61031 8.25573C1.56384 8.25573 1.53028 8.20557 1.50963 8.15949C1.40379 7.91551 1.46445 7.59969 1.30052 7.39366C1.13318 7.60492 0.998178 7.84226 0.900377 8.09714L0.273058 7.89247C0.243288 8.02043 0.238462 8.1534 0.258869 8.28337C0.279276 8.41335 0.324493 8.53765 0.391808 8.64881C0.28128 8.69874 0.18093 8.77053 0.0962212 8.86026C0.0539093 8.90513 0.0242714 8.96144 0.0105997 9.02294C-0.00307211 9.08443 -0.000247277 9.1487 0.0187695 9.20861C0.16401 9.24563 0.313467 9.26114 0.462799 9.25469C0.439431 9.54426 0.455081 9.83585 0.509273 10.1208C0.510676 10.1422 0.5162 10.1631 0.525518 10.1822C0.534837 10.2013 0.547755 10.2183 0.563484 10.232C0.609952 10.2631 0.669329 10.232 0.717088 10.2049C0.934055 10.064 1.11207 9.86581 1.2334 9.63015L1.46703 10.2157C1.48434 10.2756 1.52082 10.3273 1.57029 10.3621C1.60579 10.3751 1.64442 10.3753 1.68 10.3625C1.71558 10.3497 1.74604 10.3247 1.76649 10.2916C1.80533 10.224 1.82915 10.148 1.83619 10.0693L1.92267 9.51087C1.92491 9.48215 1.93525 9.45478 1.95237 9.43226C1.97885 9.41095 2.01215 9.40123 2.0453 9.40515C2.26602 9.40515 2.48804 9.39566 2.71006 9.39702C2.74749 9.27367 2.63003 9.15846 2.51644 9.10695C2.40285 9.05544 2.26861 9.01478 2.21182 8.89956C2.09694 8.66372 2.39511 8.33705 2.26861 8.13373C2.12017 7.89653 1.87879 8.13102 1.68517 8.23268Z" fill="black"/>
<path d="M20.9656 17.2912C20.9541 17.2991 20.9406 17.3033 20.9269 17.3034C20.9011 17.3034 20.8843 17.2763 20.8727 17.2532C20.8159 17.1177 20.8494 16.955 20.7617 16.8466C20.6726 16.9582 20.6012 17.084 20.55 17.2193L20.2157 17.1109C20.199 17.1796 20.196 17.2512 20.2069 17.3211C20.2178 17.3911 20.2423 17.458 20.2789 17.5175C20.2204 17.5448 20.1671 17.5829 20.1214 17.63C20.0994 17.6543 20.0841 17.6844 20.077 17.7171C20.07 17.7498 20.0715 17.7839 20.0814 17.8157C20.1584 17.8346 20.2373 17.8428 20.3163 17.8401C20.3036 17.9938 20.3123 18.1486 20.3422 18.2996C20.3428 18.3111 20.3457 18.3222 20.3506 18.3325C20.3555 18.3427 20.3623 18.3518 20.3706 18.3593C20.3951 18.3755 20.4273 18.3593 20.4519 18.3443C20.5669 18.2695 20.6612 18.1644 20.7255 18.0394L20.8546 18.3498C20.8639 18.3819 20.8835 18.4097 20.9101 18.4284C20.9291 18.4351 20.9496 18.435 20.9686 18.4282C20.9875 18.4213 21.0037 18.408 21.0147 18.3904C21.0352 18.3546 21.0476 18.3142 21.0508 18.2725L21.0973 17.9757C21.0968 17.9671 21.0983 17.9586 21.1015 17.9508C21.1048 17.943 21.1098 17.9361 21.1161 17.9306C21.1224 17.9252 21.1298 17.9214 21.1377 17.9196C21.1457 17.9178 21.1539 17.9179 21.1618 17.9201C21.2806 17.9201 21.398 17.9201 21.5155 17.9201C21.5361 17.8537 21.4729 17.7927 21.4135 17.7656C21.3541 17.7385 21.2844 17.7168 21.2509 17.6558C21.1902 17.5297 21.349 17.3562 21.2806 17.2491C21.2121 17.1421 21.0637 17.2383 20.9656 17.2912Z" fill="black"/>
<path d="M12.3315 22.5232C12.3195 22.5311 12.3057 22.5353 12.2915 22.5354C12.267 22.5354 12.2489 22.5083 12.2386 22.4839C12.1818 22.3551 12.2141 22.1871 12.1276 22.0773C12.0384 22.1895 11.9666 22.3157 11.9146 22.4514L11.5816 22.3429C11.565 22.4116 11.5621 22.4832 11.5729 22.5532C11.5838 22.6231 11.6083 22.69 11.6448 22.7496C11.5861 22.7763 11.5327 22.8145 11.4874 22.8621C11.4649 22.886 11.4492 22.9161 11.4419 22.9488C11.4346 22.9816 11.436 23.0158 11.4461 23.0478C11.5234 23.0668 11.6029 23.075 11.6823 23.0722C11.6697 23.2258 11.6779 23.3805 11.7068 23.5317C11.7076 23.5429 11.7105 23.5538 11.7154 23.5638C11.7203 23.5738 11.727 23.5827 11.7352 23.5899C11.7597 23.6076 11.792 23.5899 11.8165 23.5764C11.932 23.5018 12.0268 23.3966 12.0915 23.2714L12.2205 23.5818C12.2298 23.614 12.2494 23.6418 12.276 23.6604C12.295 23.6672 12.3156 23.6671 12.3345 23.6602C12.3534 23.6533 12.3696 23.6401 12.3806 23.6225C12.4011 23.5866 12.4135 23.5463 12.4167 23.5045L12.4632 23.2077C12.4642 23.1924 12.4696 23.1777 12.4787 23.1657C12.4931 23.1553 12.5103 23.1501 12.5277 23.1508C12.6452 23.1508 12.7627 23.1508 12.8814 23.1508C12.9008 23.0844 12.8388 23.0234 12.7782 22.9963C12.7175 22.9691 12.6491 22.9475 12.6168 22.8865C12.5549 22.7604 12.7136 22.5869 12.6465 22.4798C12.5794 22.3727 12.4348 22.469 12.3315 22.5232Z" fill="black"/>
<path d="M3.98018 4.21106C3.96858 4.21878 3.95519 4.223 3.94146 4.22326C3.92892 4.2209 3.91724 4.21498 3.90769 4.20613C3.89813 4.19729 3.89106 4.18587 3.88725 4.17311C3.83045 4.03756 3.86273 3.87491 3.77624 3.76647C3.68708 3.87823 3.61521 4.00402 3.56326 4.13922L3.23024 4.03078C3.21387 4.09952 3.21104 4.17103 3.22192 4.24095C3.23279 4.31087 3.25715 4.37773 3.29349 4.43742C3.23478 4.46368 3.18134 4.5014 3.13601 4.54857C3.11366 4.57262 3.098 4.60264 3.09072 4.63537C3.08344 4.6681 3.08482 4.7023 3.09471 4.73426C3.17188 4.7545 3.25147 4.76272 3.33092 4.75866C3.3184 4.91273 3.32666 5.06787 3.35545 5.21951C3.35646 5.23081 3.35961 5.24179 3.3647 5.2518C3.3698 5.2618 3.37674 5.27064 3.38513 5.2778C3.40966 5.29406 3.44064 5.2778 3.46645 5.26425C3.58164 5.18906 3.676 5.08342 3.7401 4.95791L3.86918 5.26967C3.87799 5.30171 3.89775 5.32922 3.92468 5.34693C3.94365 5.35366 3.96421 5.35359 3.98314 5.34672C4.00206 5.33985 4.01827 5.32657 4.02923 5.30897C4.04979 5.27312 4.06216 5.23276 4.06538 5.19105L4.11184 4.89556C4.11284 4.88023 4.11824 4.86558 4.12733 4.85354C4.14117 4.84198 4.1588 4.83662 4.17638 4.83863C4.29384 4.83863 4.4126 4.83863 4.53006 4.83863C4.54942 4.77357 4.48746 4.71258 4.4268 4.68411C4.36613 4.65565 4.29772 4.63532 4.26545 4.57432C4.20349 4.44962 4.36354 4.27477 4.29513 4.16768C4.22672 4.0606 4.08344 4.1582 3.98018 4.21106Z" fill="black"/>
<path d="M8.42435 14.5301C8.41291 14.5382 8.39941 14.5424 8.38562 14.5423C8.35981 14.5423 8.34303 14.5166 8.3327 14.4922C8.27591 14.3566 8.30818 14.194 8.22041 14.0855C8.1321 14.1977 8.0607 14.3234 8.00872 14.4583L7.67441 14.3498C7.65842 14.4186 7.65577 14.49 7.66664 14.5599C7.67751 14.6298 7.70166 14.6966 7.73766 14.7565C7.67943 14.7835 7.62648 14.8217 7.58147 14.869C7.55899 14.8929 7.54325 14.923 7.53596 14.9557C7.52868 14.9885 7.53013 15.0227 7.54016 15.0547C7.61701 15.0742 7.69608 15.0825 7.77509 15.0791C7.76299 15.2332 7.77168 15.3883 7.8009 15.5399C7.80168 15.5511 7.8046 15.5621 7.80947 15.5721C7.81435 15.5821 7.82109 15.591 7.8293 15.5982C7.85382 15.6145 7.88609 15.5982 7.91062 15.5833C8.02611 15.5087 8.12091 15.4035 8.18555 15.2783L8.31463 15.5887C8.32316 15.6213 8.34296 15.6493 8.37013 15.6673C8.3889 15.6742 8.40933 15.6742 8.42809 15.6673C8.44685 15.6604 8.46282 15.647 8.4734 15.6294C8.4944 15.5936 8.50722 15.5533 8.51083 15.5115L8.5573 15.216C8.55725 15.1994 8.56325 15.1834 8.57408 15.1712C8.58082 15.1653 8.58866 15.1609 8.59711 15.1584C8.60555 15.1558 8.61442 15.1551 8.62313 15.1563C8.74016 15.1563 8.85762 15.1563 8.97551 15.1563C8.99617 15.0913 8.93421 15.0289 8.87354 15.0018C8.81288 14.9747 8.74446 14.953 8.7122 14.892C8.65024 14.7673 8.809 14.5925 8.74188 14.4854C8.67476 14.3783 8.52762 14.4772 8.42435 14.5301Z" fill="black"/>
<path d="M5.19868 10.5085C5.18674 10.5154 5.17354 10.5195 5.15996 10.5207C5.14762 10.5177 5.13623 10.5114 5.12694 10.5024C5.11766 10.4933 5.11079 10.4819 5.10704 10.4692C5.05025 10.3404 5.08252 10.1723 4.99475 10.0625C4.90596 10.1748 4.83452 10.3011 4.78305 10.4366L4.44874 10.3282C4.43289 10.397 4.43033 10.4684 4.44119 10.5382C4.45205 10.6081 4.47613 10.6749 4.51199 10.7348C4.45328 10.7611 4.39984 10.7988 4.35451 10.846C4.3325 10.8703 4.31716 10.9004 4.31012 10.933C4.30307 10.9657 4.30459 10.9998 4.3145 11.0317C4.39123 11.052 4.4704 11.0602 4.54942 11.0561C4.53733 11.2102 4.54602 11.3654 4.57524 11.5169C4.57602 11.5282 4.57893 11.5391 4.58381 11.5491C4.58869 11.5591 4.59543 11.568 4.60363 11.5752C4.62816 11.5915 4.66043 11.5752 4.68495 11.5617C4.80031 11.4863 4.89504 11.3807 4.95989 11.2553L5.08897 11.5671C5.09746 11.5989 5.11674 11.6264 5.14318 11.6444C5.16215 11.6511 5.18271 11.651 5.20164 11.6441C5.22056 11.6373 5.23677 11.624 5.24773 11.6064C5.26874 11.5707 5.28156 11.5303 5.28517 11.4885L5.33035 11.193C5.33134 11.1777 5.33674 11.163 5.34583 11.151C5.36007 11.1392 5.37818 11.1338 5.39618 11.1361C5.51321 11.1361 5.63067 11.1361 5.74856 11.1361C5.76921 11.071 5.70597 11.01 5.64659 10.9815C5.58721 10.9531 5.51751 10.9327 5.48395 10.8717C5.42328 10.747 5.58205 10.5722 5.51493 10.4651C5.44781 10.358 5.30195 10.4543 5.19868 10.5085Z" fill="black"/>
<path d="M19.054 11.4546C19.0425 11.4627 19.029 11.4669 19.0152 11.4668C18.9894 11.4668 18.9726 11.441 18.9623 11.4166C18.9055 11.2811 18.9378 11.1184 18.85 11.01C18.7613 11.1218 18.6898 11.2476 18.6383 11.3828L18.304 11.2743C18.288 11.3431 18.2854 11.4145 18.2962 11.4844C18.3071 11.5543 18.3313 11.6211 18.3673 11.681C18.3087 11.7082 18.2554 11.7463 18.2098 11.7935C18.1878 11.8177 18.1724 11.8478 18.1654 11.8805C18.1583 11.9132 18.1599 11.9473 18.1698 11.9791C18.2466 11.9988 18.3257 12.007 18.4047 12.0035C18.3926 12.1577 18.4013 12.3128 18.4305 12.4644C18.4313 12.4756 18.4342 12.4866 18.4391 12.4966C18.444 12.5066 18.4507 12.5155 18.4589 12.5227C18.4834 12.539 18.5157 12.5227 18.5402 12.5078C18.6557 12.4331 18.7505 12.328 18.8152 12.2028L18.9442 12.5132C18.9528 12.5457 18.9726 12.5738 18.9997 12.5918C19.0185 12.5985 19.0389 12.5983 19.0576 12.5915C19.0763 12.5846 19.0923 12.5713 19.103 12.5539C19.124 12.5181 19.1368 12.4778 19.1404 12.4359L19.1869 12.1404C19.1862 12.1318 19.1875 12.1231 19.1907 12.1151C19.1939 12.1071 19.1988 12.1 19.2051 12.0945C19.2115 12.0889 19.219 12.085 19.227 12.0831C19.2351 12.0812 19.2435 12.0813 19.2514 12.0835C19.3693 12.0835 19.4868 12.0835 19.6038 12.0835C19.6245 12.0185 19.5612 11.9561 19.5019 11.929C19.4425 11.9019 19.3728 11.8802 19.3392 11.8192C19.2786 11.6945 19.4373 11.5197 19.3702 11.4126C19.3031 11.3055 19.1585 11.4017 19.054 11.4546Z" fill="black"/>
<path d="M12.3316 10.663C12.3196 10.6709 12.3057 10.6751 12.2915 10.6752C12.267 10.6752 12.2489 10.6495 12.2386 10.6251C12.1818 10.4895 12.2141 10.3269 12.1276 10.2184C12.0385 10.3302 11.9666 10.456 11.9146 10.5912L11.5816 10.4827C11.5652 10.5515 11.5624 10.623 11.5733 10.6929C11.5842 10.7628 11.6085 10.8297 11.6449 10.8894C11.5861 10.9156 11.5327 10.9533 11.4874 11.0005C11.465 11.0246 11.4494 11.0546 11.4421 11.0873C11.4348 11.12 11.4362 11.1542 11.4461 11.1862C11.5232 11.2065 11.6028 11.2147 11.6823 11.2106C11.6698 11.3647 11.678 11.5198 11.7068 11.6715C11.7091 11.6939 11.7192 11.7147 11.7352 11.7297C11.7597 11.746 11.792 11.7297 11.8165 11.7162C11.9322 11.6412 12.027 11.5355 12.0915 11.4099L12.2205 11.7216C12.2294 11.7537 12.2491 11.7812 12.276 11.7989C12.295 11.8056 12.3156 11.8055 12.3345 11.7987C12.3534 11.7918 12.3696 11.7785 12.3806 11.7609C12.4012 11.7251 12.4135 11.6847 12.4167 11.643L12.4632 11.3475C12.4642 11.3322 12.4696 11.3175 12.4787 11.3055C12.4925 11.2939 12.5102 11.2886 12.5278 11.2906C12.6452 11.2906 12.7627 11.2906 12.8814 11.2906C12.9008 11.2255 12.8388 11.1645 12.7782 11.1361C12.7175 11.1076 12.6491 11.0873 12.6168 11.0263C12.5549 10.9016 12.7136 10.7267 12.6465 10.6196C12.5794 10.5126 12.4348 10.6101 12.3316 10.663Z" fill="black"/>
<path d="M10.2211 11.6281C10.2092 11.635 10.196 11.6391 10.1824 11.6403C10.1701 11.6373 10.1587 11.631 10.1494 11.622C10.1401 11.6129 10.1332 11.6015 10.1295 11.5888C10.0727 11.4532 10.105 11.2919 10.0172 11.1821C9.92813 11.2942 9.85667 11.4205 9.80549 11.5562L9.47118 11.4465C9.45541 11.5152 9.45288 11.5866 9.46374 11.6565C9.4746 11.7263 9.49863 11.7932 9.53443 11.8531C9.47572 11.8794 9.42228 11.9171 9.37695 11.9642C9.35494 11.9885 9.3396 12.0186 9.33255 12.0513C9.32551 12.084 9.32702 12.1181 9.33693 12.1499C9.41366 12.1702 9.49283 12.1785 9.57186 12.1743C9.55976 12.3285 9.56846 12.4836 9.59767 12.6352C9.59845 12.6464 9.60137 12.6573 9.60625 12.6674C9.61112 12.6774 9.61787 12.6862 9.62608 12.6935C9.6506 12.7097 9.68287 12.6935 9.7074 12.6799C9.82275 12.6045 9.91748 12.499 9.98233 12.3736L10.1114 12.6853C10.1202 12.7174 10.14 12.7449 10.1669 12.7626C10.1857 12.7692 10.206 12.7691 10.2247 12.7622C10.2435 12.7554 10.2594 12.7421 10.2702 12.7246C10.2912 12.6889 10.304 12.6485 10.3076 12.6067L10.3541 12.3112C10.3546 12.296 10.3596 12.2814 10.3683 12.2692C10.3825 12.2574 10.4006 12.2521 10.4186 12.2543C10.5365 12.2543 10.654 12.2543 10.771 12.2543C10.7917 12.1892 10.7284 12.1282 10.669 12.0998C10.6096 12.0713 10.5399 12.051 10.5064 11.99C10.4457 11.8653 10.6045 11.6904 10.5374 11.5834C10.4702 11.4763 10.3244 11.5739 10.2211 11.6281Z" fill="black"/>
<path d="M8.25526 5.79423C8.24326 5.80212 8.2294 5.80634 8.21524 5.80643C8.19071 5.80643 8.17265 5.78067 8.16232 5.75627C8.10553 5.62073 8.1378 5.45807 8.05132 5.34964C7.96215 5.4614 7.89028 5.58718 7.83833 5.72239L7.50531 5.61395C7.48863 5.68265 7.48565 5.75423 7.49653 5.8242C7.50742 5.89417 7.53194 5.96103 7.56856 6.02059C7.51005 6.04783 7.4567 6.08594 7.41108 6.13309C7.38861 6.15706 7.37287 6.18708 7.36558 6.21984C7.35829 6.2526 7.35974 6.28684 7.36978 6.31879C7.44706 6.33835 7.52656 6.34656 7.60599 6.34318C7.59351 6.49725 7.60176 6.65239 7.63052 6.80404C7.63275 6.8265 7.64287 6.84728 7.65891 6.86232C7.68344 6.87859 7.71571 6.86232 7.74023 6.84741C7.85611 6.77329 7.95103 6.668 8.01517 6.54243L8.14425 6.85283C8.15352 6.885 8.17313 6.91279 8.19975 6.93145C8.21872 6.93818 8.23928 6.93811 8.25821 6.93124C8.27713 6.92437 8.29334 6.91109 8.3043 6.8935C8.32486 6.85765 8.33723 6.81728 8.34045 6.77557L8.38692 6.48008C8.38774 6.46472 8.39316 6.45001 8.4024 6.43807C8.41624 6.4265 8.43387 6.42115 8.45145 6.42316C8.56892 6.42316 8.68767 6.42316 8.80513 6.42316C8.82449 6.35674 8.76253 6.29574 8.70187 6.26863C8.6412 6.24153 8.57279 6.21984 8.54052 6.15884C8.47856 6.03279 8.63733 5.85929 8.5702 5.75221C8.50308 5.64513 8.35852 5.74136 8.25526 5.79423Z" fill="black"/>
<path d="M12.1289 13.4092C12.1164 13.4159 12.1028 13.42 12.0889 13.4213C12.0644 13.4213 12.0463 13.3942 12.036 13.3698C11.9792 13.2411 12.0114 13.073 11.925 12.9632C11.8358 13.0755 11.7639 13.2017 11.712 13.3373L11.379 13.2289C11.3624 13.2976 11.3595 13.3691 11.3704 13.4391C11.3813 13.509 11.4057 13.5759 11.4422 13.6355C11.3835 13.6618 11.3301 13.6995 11.2847 13.7467C11.2624 13.7707 11.2467 13.8007 11.2394 13.8335C11.2322 13.8662 11.2335 13.9004 11.2434 13.9324C11.3206 13.9526 11.4002 13.9608 11.4796 13.9568C11.4671 14.1108 11.4754 14.266 11.5042 14.4176C11.5064 14.4401 11.5165 14.4608 11.5326 14.4759C11.5571 14.4922 11.5894 14.4759 11.6152 14.4623C11.7302 14.3869 11.8245 14.2813 11.8888 14.156L12.0179 14.4678C12.0267 14.4998 12.0465 14.5273 12.0734 14.545C12.0924 14.5518 12.1129 14.5517 12.1319 14.5448C12.1508 14.5379 12.167 14.5247 12.1779 14.5071C12.1985 14.4712 12.2109 14.4309 12.2141 14.3891L12.2606 14.0937C12.2616 14.0783 12.267 14.0637 12.276 14.0516C12.2899 14.0401 12.3075 14.0347 12.3251 14.0367C12.4426 14.0367 12.5613 14.0367 12.6788 14.0367C12.6981 13.9717 12.6362 13.9107 12.5755 13.8822C12.5148 13.8537 12.4464 13.8334 12.4142 13.7724C12.3522 13.6477 12.511 13.4729 12.4438 13.3658C12.3767 13.2587 12.2322 13.3522 12.1289 13.4092Z" fill="black"/>
</svg>
