<svg width="18" height="24" viewBox="0 0 18 24" fill="none" xmlns="http://www.w3.org/2000/svg">
<path fill-rule="evenodd" clip-rule="evenodd" d="M9 23.2889L9.65773 22.7146C15.1887 17.8851 18 13.6681 18 9.96136C18 4.71203 13.9029 0.961365 9 0.961365C4.09705 0.961365 0 4.71203 0 9.96136C0 13.6681 2.81131 17.8851 8.34227 22.7146L9 23.2889ZM9 20.6248C4.30661 16.3949 2 12.8106 2 9.96136C2 5.85797 5.16411 2.96136 9 2.96136C12.8359 2.96136 16 5.85797 16 9.96136C16 12.8106 13.6934 16.3949 9 20.6248ZM9 4.96136C11.7614 4.96136 14 7.19994 14 9.96136C14 12.7228 11.7614 14.9614 9 14.9614C6.23858 14.9614 4 12.7228 4 9.96136C4 7.19994 6.23858 4.96136 9 4.96136ZM6 9.96136C6 8.30451 7.34315 6.96136 9 6.96136C10.6569 6.96136 12 8.30451 12 9.96136C12 11.6182 10.6569 12.9614 9 12.9614C7.34315 12.9614 6 11.6182 6 9.96136Z" fill="black"/>
</svg>
