<svg width="24" height="25" viewBox="0 0 24 25" fill="none" xmlns="http://www.w3.org/2000/svg">
<g id="24 / various / toy-horse">
<path id="icon" fill-rule="evenodd" clip-rule="evenodd" d="M4.23607 10.7253L6.44721 9.61971L8.07967 12.8846L6.06347 18.9332C6.26697 19.0831 6.48188 19.2284 6.7065 19.3677C8.06782 16.9169 9.23042 15.9614 11.5 15.9614C14.0216 15.9614 16.1748 17.5097 16.81 19.6498C17.1426 19.4672 17.4585 19.2711 17.7529 19.065C17.3711 18.5867 17.059 18.069 16.7964 17.5011C16.5128 16.8881 16.4407 16.6739 16.0307 15.3476C15.4272 13.3952 14.9866 12.9614 13 12.9614H12C10.4477 12.9614 9 11.5136 9 9.96135C9 8.7537 8.07209 7.83411 5.98509 7.22724L4.23607 10.7253ZM5.92033 13.0381L4.48419 17.3465C4.17419 16.8771 4 16.4054 4 15.9614H2C2 19.4361 7.18254 22.9613 12 22.9613C16.8175 22.9613 22 19.4361 22 15.9614H20C20 16.5235 19.7208 17.1299 19.2404 17.72C18.9957 17.3977 18.7906 17.0486 18.6116 16.6616C18.3817 16.1644 18.3197 15.9803 17.9415 14.7569C17.7743 14.2161 17.5964 13.7399 17.3949 13.3241C18.7525 12.716 20.0639 12.8724 21.4453 13.7934L22.5547 12.1293C20.4435 10.7219 18.2493 10.5864 16.1222 11.7231C15.3827 11.1974 14.3967 10.9614 13 10.9614H12C11.5523 10.9614 11 10.4091 11 9.96135C11 7.37676 8.94131 5.72981 5.19612 4.98077L4 4.74155V6.72528L1.78324 11.1588L3.80255 13.1781L5.55279 12.303L5.92033 13.0381ZM8.49811 20.2604C9.60891 20.6939 10.8196 20.9613 12 20.9613C12.9877 20.9613 13.9966 20.7741 14.9505 20.459C14.6721 19.0601 13.2524 17.9614 11.5 17.9614C10.1985 17.9614 9.48025 18.5139 8.49811 20.2604Z" fill="black"/>
</g>
</svg>
